<svg width="381" height="179" viewBox="0 0 381 179" fill="none" xmlns="http://www.w3.org/2000/svg">
<path d="M17.2635 55.3374C14.3394 55.3374 11.5278 54.8688 8.82858 53.9316C6.16689 52.9569 4.10501 51.7197 2.64295 50.2202L4.27371 47.0149C5.66079 48.3645 7.51648 49.5079 9.84078 50.4451C12.2026 51.3449 14.6768 51.7947 17.2635 51.7947C19.7378 51.7947 21.7434 51.4948 23.2805 50.895C24.855 50.2577 25.9984 49.4142 26.7107 48.3645C27.4605 47.3148 27.8353 46.1527 27.8353 44.8781C27.8353 43.341 27.3855 42.1039 26.4857 41.1667C25.6235 40.2295 24.4801 39.4984 23.0555 38.9736C21.631 38.4113 20.0564 37.9239 18.332 37.5115C16.6075 37.0992 14.883 36.668 13.1585 36.2182C11.434 35.7308 9.84078 35.0935 8.37872 34.3063C6.95415 33.519 5.792 32.4881 4.89227 31.2134C4.03003 29.9013 3.59891 28.1956 3.59891 26.0962C3.59891 24.1468 4.10501 22.3661 5.1172 20.7541C6.16689 19.1046 7.76016 17.7925 9.89701 16.8178C12.0339 15.8056 14.7705 15.2995 18.107 15.2995C20.3189 15.2995 22.5119 15.6181 24.6863 16.2555C26.8606 16.8553 28.7351 17.6988 30.3096 18.7859L28.9038 22.1037C27.2168 20.979 25.4173 20.1543 23.5054 19.6294C21.631 19.1046 19.8128 18.8422 18.0508 18.8422C15.689 18.8422 13.7396 19.1608 12.2026 19.7981C10.6655 20.4354 9.52212 21.2977 8.77235 22.3849C8.06007 23.4345 7.70392 24.6342 7.70392 25.9838C7.70392 27.5208 8.13504 28.7579 8.99728 29.6951C9.89701 30.6324 11.0592 31.3634 12.4837 31.8882C13.9458 32.4131 15.5391 32.8817 17.2635 33.2941C18.988 33.7064 20.6937 34.1563 22.3807 34.6436C24.1052 35.131 25.6797 35.7683 27.1043 36.5556C28.5664 37.3053 29.7285 38.3175 30.5908 39.5922C31.4905 40.8668 31.9404 42.535 31.9404 44.5969C31.9404 46.5088 31.4155 48.2895 30.3658 49.939C29.3161 51.551 27.7041 52.8631 25.5298 53.8753C23.3929 54.85 20.6375 55.3374 17.2635 55.3374ZM60.8573 55.2812C57.9332 55.2812 55.309 54.6439 52.9847 53.3692C50.6979 52.0571 48.8984 50.2764 47.5863 48.0271C46.2742 45.7403 45.6182 43.1348 45.6182 40.2107C45.6182 37.2491 46.2742 34.6437 47.5863 32.3943C48.8984 30.145 50.6979 28.383 52.9847 27.1084C55.309 25.8338 57.9332 25.1965 60.8573 25.1965C63.369 25.1965 65.6371 25.6839 67.6615 26.6586C69.6859 27.6333 71.2791 29.0953 72.4413 31.0447L69.4609 33.0691C68.4488 31.5696 67.1929 30.4637 65.6933 29.7514C64.1938 29.0391 62.563 28.683 60.8011 28.683C58.7017 28.683 56.8085 29.1703 55.1215 30.145C53.4345 31.0822 52.1037 32.4131 51.129 34.1376C50.1543 35.862 49.6669 37.8864 49.6669 40.2107C49.6669 42.535 50.1543 44.5594 51.129 46.2839C52.1037 48.0084 53.4345 49.358 55.1215 50.3327C56.8085 51.2699 58.7017 51.7385 60.8011 51.7385C62.563 51.7385 64.1938 51.3823 65.6933 50.6701C67.1929 49.9578 68.4488 48.8706 69.4609 47.4085L72.4413 49.4329C71.2791 51.3449 69.6859 52.8069 67.6615 53.8191C65.6371 54.7938 63.369 55.2812 60.8573 55.2812ZM100.765 55.2812C97.6911 55.2812 94.9919 54.6439 92.6676 53.3692C90.3433 52.0571 88.5251 50.2764 87.213 48.0271C85.9009 45.7403 85.2449 43.1348 85.2449 40.2107C85.2449 37.2866 85.8634 34.6999 87.1005 32.4506C88.3752 30.2012 90.0996 28.4393 92.274 27.1647C94.4858 25.8526 96.9601 25.1965 99.6967 25.1965C102.471 25.1965 104.926 25.8338 107.063 27.1084C109.238 28.3456 110.943 30.1075 112.18 32.3943C113.418 34.6437 114.036 37.2491 114.036 40.2107C114.036 40.3982 114.017 40.6043 113.98 40.8293C113.98 41.0167 113.98 41.2229 113.98 41.4478H88.2814V38.4675H111.843L110.269 39.6484C110.269 37.5115 109.8 35.6184 108.863 33.9689C107.963 32.2819 106.726 30.9698 105.151 30.0325C103.577 29.0953 101.759 28.6267 99.6967 28.6267C97.6723 28.6267 95.8541 29.0953 94.2421 30.0325C92.6301 30.9698 91.3743 32.2819 90.4745 33.9689C89.5748 35.6558 89.1249 37.5865 89.1249 39.7609V40.3794C89.1249 42.6287 89.6123 44.6156 90.587 46.3401C91.5992 48.0271 92.9863 49.358 94.7482 50.3327C96.5477 51.2699 98.5908 51.7385 100.878 51.7385C102.677 51.7385 104.345 51.4198 105.882 50.7825C107.457 50.1452 108.806 49.1705 109.931 47.8584L112.18 50.4451C110.868 52.0197 109.219 53.2193 107.232 54.044C105.283 54.8688 103.127 55.2812 100.765 55.2812ZM145.668 25.1965C148.067 25.1965 150.167 25.6651 151.966 26.6023C153.803 27.5021 155.228 28.8891 156.24 30.7636C157.29 32.638 157.814 34.9998 157.814 37.8489V55H153.822V38.2426C153.822 35.131 153.035 32.788 151.46 31.2134C149.923 29.6014 147.749 28.7954 144.937 28.7954C142.838 28.7954 141.001 29.2265 139.426 30.0888C137.889 30.9135 136.69 32.1319 135.827 33.7439C135.003 35.3184 134.59 37.2304 134.59 39.4797V55H130.598V25.4777H134.421V33.5752L133.803 32.0569C134.74 29.9201 136.24 28.2518 138.302 27.0522C140.363 25.8151 142.819 25.1965 145.668 25.1965ZM189.574 55.2812C186.5 55.2812 183.801 54.6439 181.476 53.3692C179.152 52.0571 177.334 50.2764 176.022 48.0271C174.71 45.7403 174.053 43.1348 174.053 40.2107C174.053 37.2866 174.672 34.6999 175.909 32.4506C177.184 30.2012 178.908 28.4393 181.083 27.1647C183.294 25.8526 185.769 25.1965 188.505 25.1965C191.28 25.1965 193.735 25.8338 195.872 27.1084C198.046 28.3456 199.752 30.1075 200.989 32.3943C202.226 34.6437 202.845 37.2491 202.845 40.2107C202.845 40.3982 202.826 40.6043 202.789 40.8293C202.789 41.0167 202.789 41.2229 202.789 41.4478H177.09V38.4675H200.652L199.077 39.6484C199.077 37.5115 198.609 35.6184 197.671 33.9689C196.772 32.2819 195.534 30.9698 193.96 30.0325C192.385 29.0953 190.567 28.6267 188.505 28.6267C186.481 28.6267 184.663 29.0953 183.051 30.0325C181.439 30.9698 180.183 32.2819 179.283 33.9689C178.383 35.6558 177.934 37.5865 177.934 39.7609V40.3794C177.934 42.6287 178.421 44.6156 179.396 46.3401C180.408 48.0271 181.795 49.358 183.557 50.3327C185.356 51.2699 187.399 51.7385 189.686 51.7385C191.486 51.7385 193.154 51.4198 194.691 50.7825C196.266 50.1452 197.615 49.1705 198.74 47.8584L200.989 50.4451C199.677 52.0197 198.027 53.2193 196.041 54.044C194.091 54.8688 191.936 55.2812 189.574 55.2812ZM28.004 158.675C23.1118 158.675 18.7537 157.691 14.9299 155.723C11.106 153.698 8.09755 150.915 5.90447 147.372C3.76761 143.829 2.69918 139.809 2.69918 135.31C2.69918 130.755 3.76761 126.734 5.90447 123.248C8.09755 119.705 11.106 116.95 14.9299 114.982C18.7537 112.957 23.1118 111.945 28.004 111.945C32.7838 111.945 36.9451 112.957 40.4878 114.982C44.0305 116.95 46.6453 119.79 48.3323 123.501L38.126 128.984C36.9451 126.847 35.4549 125.272 33.6555 124.26C31.9122 123.248 30.0003 122.742 27.9197 122.742C25.6704 122.742 23.646 123.248 21.8465 124.26C20.0471 125.272 18.6131 126.706 17.5447 128.562C16.5325 130.418 16.0264 132.667 16.0264 135.31C16.0264 137.953 16.5325 140.202 17.5447 142.058C18.6131 143.914 20.0471 145.348 21.8465 146.36C23.646 147.372 25.6704 147.878 27.9197 147.878C30.0003 147.878 31.9122 147.4 33.6555 146.444C35.4549 145.432 36.9451 143.829 38.126 141.636L48.3323 147.203C46.6453 150.858 44.0305 153.698 40.4878 155.723C36.9451 157.691 32.7838 158.675 28.004 158.675ZM68.561 158V112.62H81.1291V125.441L79.3577 121.73C80.7073 118.524 82.8723 116.106 85.8527 114.476C88.833 112.789 92.46 111.945 96.7337 111.945V124.091C96.1714 124.035 95.6653 124.007 95.2154 124.007C94.7656 123.951 94.2876 123.923 93.7815 123.923C90.1826 123.923 87.2585 124.963 85.0092 127.044C82.8161 129.068 81.7195 132.245 81.7195 136.575V158H68.561ZM139.402 158.675C134.229 158.675 129.674 157.663 125.737 155.638C121.857 153.614 118.849 150.858 116.712 147.372C114.575 143.829 113.507 139.809 113.507 135.31C113.507 130.755 114.547 126.734 116.628 123.248C118.765 119.705 121.661 116.95 125.316 114.982C128.971 112.957 133.104 111.945 137.715 111.945C142.157 111.945 146.15 112.901 149.693 114.813C153.292 116.669 156.131 119.368 158.212 122.911C160.293 126.397 161.333 130.586 161.333 135.479C161.333 135.985 161.305 136.575 161.249 137.25C161.192 137.869 161.136 138.459 161.08 139.021H124.219V131.346H154.163L149.102 133.623C149.102 131.261 148.624 129.209 147.668 127.465C146.712 125.722 145.391 124.373 143.704 123.417C142.017 122.405 140.049 121.898 137.799 121.898C135.55 121.898 133.554 122.405 131.811 123.417C130.124 124.373 128.802 125.75 127.846 127.55C126.89 129.293 126.412 131.374 126.412 133.792V135.816C126.412 138.29 126.946 140.483 128.015 142.395C129.14 144.251 130.686 145.685 132.654 146.697C134.679 147.653 137.04 148.131 139.739 148.131C142.157 148.131 144.266 147.766 146.066 147.035C147.921 146.304 149.608 145.207 151.127 143.745L158.128 151.336C156.047 153.698 153.432 155.526 150.283 156.819C147.134 158.056 143.507 158.675 139.402 158.675ZM209.346 158V149.143L208.502 147.203V131.346C208.502 128.534 207.631 126.341 205.887 124.766C204.2 123.192 201.585 122.405 198.043 122.405C195.625 122.405 193.235 122.798 190.873 123.585C188.568 124.316 186.599 125.329 184.969 126.622L180.245 117.428C182.719 115.685 185.7 114.335 189.186 113.379C192.673 112.423 196.215 111.945 199.814 111.945C206.731 111.945 212.101 113.576 215.925 116.837C219.749 120.099 221.661 125.188 221.661 132.105V158H209.346ZM195.512 158.675C191.97 158.675 188.933 158.084 186.403 156.903C183.872 155.666 181.932 154.007 180.582 151.927C179.233 149.846 178.558 147.513 178.558 144.926C178.558 142.227 179.205 139.865 180.498 137.84C181.848 135.816 183.956 134.242 186.824 133.117C189.692 131.936 193.432 131.346 198.043 131.346H210.105V139.021H199.477C196.384 139.021 194.247 139.527 193.066 140.54C191.941 141.552 191.379 142.817 191.379 144.335C191.379 146.022 192.026 147.372 193.319 148.384C194.669 149.34 196.496 149.818 198.802 149.818C200.995 149.818 202.963 149.312 204.706 148.3C206.45 147.231 207.715 145.685 208.502 143.661L210.527 149.734C209.571 152.658 207.827 154.879 205.297 156.397C202.766 157.916 199.505 158.675 195.512 158.675ZM304.356 158.675C299.52 158.675 295.218 157.663 291.451 155.638C287.739 153.614 284.787 150.858 282.594 147.372C280.457 143.829 279.389 139.809 279.389 135.31C279.389 130.755 280.457 126.734 282.594 123.248C284.787 119.705 287.739 116.95 291.451 114.982C295.218 112.957 299.52 111.945 304.356 111.945C309.136 111.945 313.41 112.957 317.177 114.982C320.945 116.95 323.897 119.677 326.034 123.164C328.171 126.65 329.239 130.699 329.239 135.31C329.239 139.809 328.171 143.829 326.034 147.372C323.897 150.858 320.945 153.614 317.177 155.638C313.41 157.663 309.136 158.675 304.356 158.675ZM304.356 147.878C306.549 147.878 308.517 147.372 310.261 146.36C312.004 145.348 313.382 143.914 314.394 142.058C315.406 140.146 315.912 137.897 315.912 135.31C315.912 132.667 315.406 130.418 314.394 128.562C313.382 126.706 312.004 125.272 310.261 124.26C308.517 123.248 306.549 122.742 304.356 122.742C302.163 122.742 300.195 123.248 298.452 124.26C296.708 125.272 295.303 126.706 294.234 128.562C293.222 130.418 292.716 132.667 292.716 135.31C292.716 137.897 293.222 140.146 294.234 142.058C295.303 143.914 296.708 145.348 298.452 146.36C300.195 147.372 302.163 147.878 304.356 147.878ZM350.687 158V112.62H363.255V125.441L361.484 121.73C362.833 118.524 364.998 116.106 367.979 114.476C370.959 112.789 374.586 111.945 378.86 111.945V124.091C378.297 124.035 377.791 124.007 377.342 124.007C376.892 123.951 376.414 123.923 375.908 123.923C372.309 123.923 369.385 124.963 367.135 127.044C364.942 129.068 363.846 132.245 363.846 136.575V158H350.687Z" fill="black"/>
<rect x="224.052" y="64.1408" width="50.9612" height="101.922" stroke="#A6A6A6" stroke-width="1.75728"/>
<path d="M255.832 146.192C250.883 146.192 247.06 144.927 244.36 142.397C241.661 139.81 240.312 136.014 240.312 131.01V90.6062H250.855V130.757C250.855 132.893 251.389 134.552 252.458 135.733C253.583 136.914 255.129 137.504 257.097 137.504C259.459 137.504 261.427 136.886 263.002 135.649L265.954 143.156C264.717 144.168 263.198 144.927 261.399 145.433C259.599 145.939 257.744 146.192 255.832 146.192ZM232.889 109.332V100.897H262.917V109.332H232.889Z" fill="black"/>
<line x1="272.379" y1="113.345" x2="277.651" y2="113.345" stroke="#A6A6A6" stroke-width="1.75728"/>
<line x1="221.418" y1="113.345" x2="226.69" y2="113.345" stroke="#A6A6A6" stroke-width="1.75728"/>
<line x1="221.418" y1="166.063" x2="226.69" y2="166.063" stroke="#A6A6A6" stroke-width="1.75728"/>
<line x1="224.052" y1="163.427" x2="224.052" y2="168.699" stroke="#A6A6A6" stroke-width="1.75728"/>
<line x1="248.656" y1="163.427" x2="248.656" y2="168.699" stroke="#A6A6A6" stroke-width="1.75728"/>
<line x1="275.015" y1="163.427" x2="275.015" y2="168.699" stroke="#A6A6A6" stroke-width="1.75728"/>
<line x1="275.015" y1="61.5049" x2="275.015" y2="66.7767" stroke="#A6A6A6" stroke-width="1.75728"/>
<line x1="224.052" y1="61.5049" x2="224.052" y2="66.7767" stroke="#A6A6A6" stroke-width="1.75728"/>
<line x1="248.656" y1="61.5049" x2="248.656" y2="66.7767" stroke="#A6A6A6" stroke-width="1.75728"/>
<line x1="272.379" y1="166.063" x2="277.651" y2="166.063" stroke="#A6A6A6" stroke-width="1.75728"/>
<line x1="272.379" y1="64.1409" x2="277.651" y2="64.1409" stroke="#A6A6A6" stroke-width="1.75728"/>
<line x1="221.418" y1="64.1409" x2="226.69" y2="64.1409" stroke="#A6A6A6" stroke-width="1.75728"/>
</svg>
